<svg width="85" height="85" viewBox="0 0 85 85" fill="none" xmlns="http://www.w3.org/2000/svg">
<path d="M61.9493 59.7882H72.034V56.9068H61.9493V59.7882ZM76.356 55.4661V62.6695H44.6611V59.7882H57.6272V56.9068H44.6611V55.4661H76.356Z" fill="#E4C6A1"/>
<path d="M76.356 45.3813V52.5847H44.6611V49.7034H72.034V46.822H44.6611V45.3813H48.9832H76.356Z" fill="#FFF8EF"/>
<path d="M50.4238 35.2966H82.1187V42.5H77.7967H50.4238V39.6187H73.4747V36.7373H50.4238V35.2966Z" fill="#E4C6A1"/>
<path d="M36.0169 36.7373H25.9321V55.4661H36.0169V36.7373Z" fill="#D9CDC1"/>
<path d="M34.5764 39.6187V52.5848C34.5764 53.4492 33.8561 54.0254 33.1358 54.0254H28.8137C27.9493 54.0254 27.373 53.3051 27.373 52.5848V39.6187C27.373 38.7542 28.0934 38.178 28.8137 38.178H33.1358C33.8561 38.178 34.5764 38.8983 34.5764 39.6187Z" fill="#FFF8EF"/>
<path d="M36.0169 58.3474H25.9321V62.6694H36.0169V58.3474Z" fill="#1D9AAE"/>
<path d="M36.0169 29.5339H25.9321V33.8559H36.0169V29.5339Z" fill="#1D9AAE"/>
<path d="M15.8477 49.7034V18.0085C15.8477 17.1441 15.2714 16.5678 14.407 16.5678H10.085C9.22056 16.5678 8.64429 17.1441 8.64429 18.0085V49.7034C8.64429 50.4237 9.22056 51.1441 10.085 51.1441H14.407C15.2714 51.1441 15.8477 50.4237 15.8477 49.7034ZM7.20361 62.6695V5.04236H17.2884V62.6695H7.20361Z" fill="#E94545"/>
<path d="M80.678 65.5508V71.3136H76.3559H66.2712H17.2881H7.20338H2.88135V65.5508H5.7627H18.7288H24.4915H37.4576H43.2203H77.7966H80.678Z" fill="#996632"/>
<path d="M15.8474 74.1949H8.64404V79.9576H15.8474V74.1949Z" fill="#996632"/>
<path d="M74.9153 74.1949H67.7119V79.9576H74.9153V74.1949Z" fill="#996632"/>
<path d="M72.034 56.9068H61.9492V59.7882H72.034V56.9068Z" fill="#42210B"/>
<path d="M12.9661 48.2627V19.4492H11.5254V48.2627H12.9661ZM15.8474 18.0085V49.7034C15.8474 50.4237 15.2712 51.1441 14.4068 51.1441H10.0847C9.22031 51.1441 8.64404 50.4237 8.64404 49.7034V18.0085C8.64404 17.1441 9.22031 16.5678 10.0847 16.5678H14.4068C15.2712 16.5678 15.8474 17.1441 15.8474 18.0085Z" fill="#42210B"/>
<path d="M15.8475 79.9576V74.1949H8.64407V79.9576H15.8475ZM36.0169 33.8559V29.5339H25.9322V33.8559H36.0169ZM36.0169 55.4661V36.7373H25.9322V55.4661H36.0169ZM36.0169 62.6695V58.3475H25.9322V62.6695H36.0169ZM7.20339 62.6695H17.2881V5.04237H7.20339V62.6695ZM74.9153 79.9576V74.1949H67.7119V79.9576H74.9153ZM76.3559 52.5847V45.3814H48.9831H44.661V46.822H72.0339V49.7034H44.661V52.5847H76.3559ZM76.3559 62.6695V55.4661H44.661V56.9068H57.6271V59.7881H44.661V62.6695H76.3559ZM80.678 71.3136V65.5508H77.7966H43.2203H37.4576H24.4915H18.7288H5.76271H2.88136V71.3136H7.20339H17.2881H66.2712H76.3559H80.678ZM82.1186 42.5V35.2966H50.4237V36.7373H73.4746V39.6186H50.4237V42.5H77.7966H82.1186ZM85 33.8559V43.9407C85 44.661 84.2797 45.3814 83.5593 45.3814H79.2373V54.0254V62.6695H82.1186C82.839 62.6695 83.5593 63.3898 83.5593 64.1102V72.7542C83.5593 73.4746 82.839 74.1949 82.1186 74.1949H77.7966V81.3983C77.7966 82.1186 77.0763 82.839 76.3559 82.839H66.2712C65.5508 82.839 64.8305 82.1186 64.8305 81.3983V74.1949H18.7288V81.3983C18.7288 82.1186 18.1525 82.839 17.2881 82.839H7.20339C6.33898 82.839 5.76271 82.1186 5.76271 81.3983V74.1949H1.44068C0.720339 74.1949 0 73.4746 0 72.7542V64.1102C0 63.3898 0.720339 62.6695 1.44068 62.6695H4.32203V3.60169C4.32203 2.73728 4.8983 2.16101 5.76271 2.16101H18.7288C19.4492 2.16101 20.1695 2.73728 20.1695 3.60169V62.6695H23.0508V56.9068V35.2966V28.0932C23.0508 27.3729 23.7712 26.6525 24.4915 26.6525H37.4576C38.178 26.6525 38.8983 27.3729 38.8983 28.0932V35.2966V56.9068V62.6695H41.7797V54.0254V43.9407C41.7797 43.2203 42.5 42.5 43.2203 42.5H47.5424V33.8559C47.5424 33.1356 48.2627 32.4152 48.9831 32.4152H83.5593C84.2797 32.4152 85 33.1356 85 33.8559Z" fill="#42210B"/>
<path d="M4.32203 65.5508V67.1356C4.32203 68.5763 5.61864 69.8729 7.05931 69.8729H76.3559C77.9407 69.8729 79.0932 68.5763 79.0932 67.1356V65.5508H80.5339V71.3136H2.88135V65.5508H4.32203Z" fill="#875426"/>
</svg>
