<svg width="20" height="20" viewBox="0 0 20 20" fill="none" xmlns="http://www.w3.org/2000/svg">
<path fill-rule="evenodd" clip-rule="evenodd" d="M17.3732 1.56555C16.3969 0.589237 14.814 0.589234 13.8377 1.56555L2.0397 13.3636C1.6907 13.7126 1.4528 14.1571 1.35601 14.641L0.866788 17.0871C0.633548 18.2533 1.66175 19.2816 2.82795 19.0483L5.27406 18.5591C5.75804 18.4623 6.20254 18.2244 6.55154 17.8754L18.3495 6.07739C19.3258 5.10108 19.3258 3.51817 18.3495 2.54185L17.3732 1.56555ZM15.0162 2.74405C15.3417 2.41862 15.8692 2.41862 16.1947 2.74405L17.171 3.72037C17.4965 4.0458 17.4965 4.57344 17.171 4.89888L14.9447 7.1252L12.7899 4.97038L15.0162 2.74405ZM11.6113 6.1489L3.2182 14.5421C3.10187 14.6584 3.02258 14.8066 2.99031 14.9679L2.50109 17.414L4.9472 16.9247C5.10853 16.8925 5.2567 16.8132 5.37303 16.6969L13.7662 8.30371L11.6113 6.1489Z" fill="white"/>
</svg>
