<svg width="97" height="97" viewBox="0 0 97 97" fill="none" xmlns="http://www.w3.org/2000/svg">
<path d="M17.334 13.849H72.7623V51.9566H79.6906V6.92072H10.4048V90.0632H48.5V83.1349H17.334V13.849Z" fill="black"/>
<path d="M24.2622 20.7773H65.8339V27.7056H24.2622V20.7773ZM24.2622 34.6349H58.9047V41.5632H24.2622V34.6349ZM24.2622 48.4915H45.0481V55.4198H24.2622V48.4915ZM69.2971 55.4207C59.7307 55.4207 51.9754 63.176 51.9754 72.7424C51.9754 82.3089 59.7307 90.0641 69.2971 90.0641C78.8635 90.0641 86.6188 82.3089 86.6188 72.7424C86.6188 63.176 78.8645 55.4207 69.2971 55.4207ZM69.2971 83.1349C63.5662 83.1349 58.9047 78.4724 58.9047 72.7424C58.9047 67.0115 63.5671 62.35 69.2971 62.35C75.0281 62.35 79.6896 67.0124 79.6896 72.7424C79.6905 78.4724 75.0281 83.1349 69.2971 83.1349Z" fill="black"/>
<path d="M71.8964 65.5584H66.6997V73.8251L73.2728 80.3385L76.9302 76.648L71.8964 71.6597V65.5584Z" fill="black"/>
</svg>
